<?xml version="1.0" encoding="utf-8"?>
<!-- Generator: Adobe Illustrator 14.0.0, SVG Export Plug-In . SVG Version: 6.00 Build 43363)  -->
<!DOCTYPE svg PUBLIC "-//W3C//DTD SVG 1.1//EN" "http://www.w3.org/Graphics/SVG/1.1/DTD/svg11.dtd">
<svg version="1.1" id="Layer_1" xmlns="http://www.w3.org/2000/svg" xmlns:xlink="http://www.w3.org/1999/xlink" x="0px" y="0px"
	 width="30px" height="30px" viewBox="0 0 30 30" enable-background="new 0 0 30 30" xml:space="preserve">
<g>
	<radialGradient id="SVGID_1_" cx="15" cy="15" r="13.2881" gradientUnits="userSpaceOnUse">
		<stop  offset="0" style="stop-color:#FFFFFF"/>
		<stop  offset="0.2293" style="stop-color:#FCFCFC"/>
		<stop  offset="0.4212" style="stop-color:#F1F1F1"/>
		<stop  offset="0.5996" style="stop-color:#E0E0E0"/>
		<stop  offset="0.7698" style="stop-color:#C8C8C8"/>
		<stop  offset="0.9327" style="stop-color:#A8A8A8"/>
		<stop  offset="1" style="stop-color:#999999"/>
	</radialGradient>
	<path fill="url(#SVGID_1_)" d="M15,28.288C7.673,28.288,1.712,22.327,1.712,15S7.673,1.712,15,1.712S28.288,7.673,28.288,15
		S22.327,28.288,15,28.288L15,28.288z"/>
	<path fill="#333333" d="M15,3.212C21.5,3.212,26.788,8.5,26.788,15S21.5,26.788,15,26.788S3.212,21.5,3.212,15S8.5,3.212,15,3.212
		 M15,0.212C6.833,0.212,0.212,6.833,0.212,15S6.833,29.788,15,29.788S29.788,23.167,29.788,15S23.167,0.212,15,0.212L15,0.212z"/>
</g>
<line fill="none" stroke="#333333" stroke-width="3" stroke-linecap="round" stroke-miterlimit="5" x1="9.377" y1="20.623" x2="20.623" y2="9.378"/>
<line fill="none" stroke="#333333" stroke-width="3" stroke-linecap="round" stroke-miterlimit="5" x1="20.623" y1="20.624" x2="9.377" y2="9.377"/>
</svg>
